<?xml version="1.0" standalone="no"?>
<!DOCTYPE svg PUBLIC "-//W3C//DTD SVG 20010904//EN"
 "http://www.w3.org/TR/2001/REC-SVG-20010904/DTD/svg10.dtd">
<svg version="1.0" xmlns="http://www.w3.org/2000/svg"
 width="512.000000pt" height="512.000000pt" viewBox="0 0 512.000000 512.000000"
 preserveAspectRatio="xMidYMid meet">
<metadata>
Created by potrace 1.11, written by Peter Selinger 2001-2013
</metadata>
<g transform="translate(0.000000,512.000000) scale(0.100000,-0.100000)"
fill="#000000" stroke="none">
<path d="M3296 4895 c-19 -7 -80 -38 -136 -69 l-101 -58 -64 26 c-58 23 -113
35 -235 51 -61 8 -327 8 -340 0 -6 -4 -8 -19 -6 -33 7 -31 34 -156 41 -189 4
-19 -4 -25 -75 -52 -108 -42 -178 -74 -252 -118 -64 -36 -254 -162 -286 -188
-119 -97 -148 -120 -152 -125 -3 -3 -36 -32 -75 -65 -195 -168 -343 -314 -394
-391 -47 -69 -91 -171 -107 -244 -4 -19 -9 -42 -11 -50 -9 -36 -9 -158 -1
-195 10 -46 47 -125 60 -125 4 0 8 -7 8 -15 0 -8 4 -15 8 -15 4 0 15 -12 24
-27 10 -16 29 -41 44 -58 14 -16 38 -45 51 -62 14 -18 31 -33 37 -33 7 0 32
18 56 40 43 39 44 40 64 21 42 -38 100 -61 153 -61 48 0 56 3 96 43 35 33 52
63 82 142 39 102 60 140 83 149 21 9 71 -17 147 -75 144 -108 273 -158 404
-155 34 1 61 1 61 0 0 -1 -26 -22 -59 -47 -59 -47 -243 -225 -316 -307 -151
-168 -337 -424 -448 -615 -71 -123 -182 -370 -167 -370 2 0 -2 -9 -8 -21 -35
-65 -45 -235 -21 -329 6 -22 11 -41 10 -43 -3 -5 58 -119 83 -155 14 -21 26
-39 26 -40 0 -2 -44 -3 -97 -2 -115 0 -159 -10 -181 -43 -28 -44 -21 -114 15
-135 11 -7 6 -18 -22 -57 -19 -26 -35 -54 -35 -62 0 -8 -3 -18 -7 -22 -15 -14
-19 -96 -8 -146 10 -46 29 -82 66 -124 28 -33 29 -35 11 -48 -11 -7 -25 -30
-32 -50 -12 -33 -12 -42 3 -73 11 -23 29 -41 50 -49 47 -19 2371 -17 2404 2
57 32 66 117 18 162 l-24 23 29 34 c95 107 97 258 6 367 -21 25 -22 31 -10 43
23 23 33 48 30 74 -10 86 -38 102 -178 103 -63 1 -111 5 -118 12 -19 19 -12
144 13 234 13 47 51 153 84 235 47 117 143 385 148 415 1 3 9 32 19 65 9 33
19 67 22 76 3 10 25 39 50 65 101 107 140 189 169 359 7 44 18 190 19 264 l1
64 -67 35 -66 35 44 29 c81 55 92 74 88 170 -2 74 -7 132 -18 218 -16 129 -73
339 -116 433 -14 28 -16 29 -117 30 -24 0 -43 2 -43 3 0 2 20 33 45 69 52 75
52 75 -2 175 -59 108 -170 247 -316 394 l-138 139 25 76 c52 160 61 228 32
260 -19 21 -33 22 -80 6z"/>
</g>
</svg>
